<svg xmlns="http://www.w3.org/2000/svg" width="400" height="400">
    <!-- Created with Method Draw - http://github.com/duopixel/Method-Draw/ -->
    <g>
        <title>background</title>
        <rect fill="none" id="canvas_background" height="402" width="402" y="-1" x="-1"/>
        <g display="none" overflow="visible" y="0" x="0" height="100%" width="100%" id="canvasGrid">
            <rect fill="url(#gridpattern)" stroke-width="0" y="0" x="0" height="100%" width="100%"/>
        </g>
    </g>
    <g>
        <title>Layer 1</title>
        <path id="svg_18" d="m146,146" opacity="0.5" stroke-opacity="null" stroke-width="0" stroke="#000" fill="#A4FFFF"/>
        <path stroke="#000" id="svg_29" d="m285.460259,86.757162c-22.783428,-16.700789 -47.356608,-30.079166 -67.514194,-31.903042c-1.097367,-0.118305 -2.233926,-0.187317 -3.435804,-0.207035l-132.663823,0c-2.116351,0 -4.206573,0.621104 -5.695857,1.774582c-1.47622,1.123902 -2.351501,2.701308 -2.351501,4.308291l0,253.863823c0,1.597124 0.823025,3.125236 2.351501,4.288573c1.528475,1.14362 3.540315,1.764723 5.695857,1.764723l239.905313,0c2.116351,0 4.141254,-0.611245 5.669729,-1.764723c1.528475,-1.153478 2.377628,-2.681591 2.377628,-4.288573l0,-168.930353c-0.4703,-19.609132 -20.823844,-40.992846 -44.338849,-58.906266zm28.218007,221.734029l-223.810598,0l0,-241.717794l124.655657,0l0,0.019718c5.434579,-0.24647 10.124516,3.805493 13.717087,13.072755c3.265973,8.823616 4.088998,20.328823 4.075934,28.304584c0.026128,5.846262 -0.352725,9.77006 -0.352725,9.77006l-0.640131,6.427931l8.569913,0.069012c0.039192,0 19.80486,0.177458 39.191676,3.49987c18.62911,3.036507 33.19535,9.089804 34.553994,15.941662c0.052256,0.611245 0.065319,1.22249 0.052256,1.7943l0,162.817904l-0.013064,0z" stroke-opacity="null" stroke-width="0" fill="#000000"/>
        <path stroke="#000" transform="rotate(-89.13775634765625 194.4097900390625,191.51553344726562) " id="svg_30" d="m250.72821,125.377677l-20.026986,-11.036519c-5.052873,-2.781817 -11.710909,-1.442929 -14.894741,2.988262l-7.893768,11.015926l38.312473,21.098187l7.899993,-11.010813c3.171749,-4.436465 1.65799,-10.279424 -3.39697,-13.055043l0,0zm-110.992673,98.140261l38.31456,21.09797l62.446382,-87.160547l-38.332799,-21.103478l-62.428149,87.16605l0.000006,0.000006zm-5.852542,26.805756l-0.846231,19.816961l19.996264,-9.273435l18.58221,-8.602419l-36.963284,-20.366759l-0.768953,18.425657l0,0l-0.000006,-0.000006z" stroke-opacity="null" stroke-width="0" fill="#462735"/>
    </g>
</svg>